#!OML:ASF F:\VICON\USERDATA\INSTALL\rory3\rory3.ASF
:FULLY-SPECIFIED
:DEGREES
38
root 4.871752258709654 17.97236546356998 12.087939216830886 -3.0518815875972747 0.05814874639293244 -3.226249307941213
lfemur -0.8084315268092386 -1.9652182469328134 -15.993123622118752
ltibia 58.44941383716987
lfoot 18.071408330568193 -18.696755756686823
ltoes 2.5690943786715374
rfemur -16.539206041635225 5.584970131467065 28.71640779130552
rtibia 30.47471506686746
rfoot -6.412278513112277 -5.29573639100138
rtoes 14.138657852236593
lowerback 1.0 -1.0709732484427779 0.9609379411770165
upperback 0.09296418900944625 -2.094082923964883 2.5799415475243563
thorax -4.805665101485491 -1.0388826731027143 3.2453871153093345
lowerneck -16.233020052043837 -2.375441325664199 -1.8145966443937942
upperneck 18.477976463274715 -3.081676436368788 0.4732323079469819
head 9.580710180959468 -1.6290605023183002 -0.08637461079860818
lclavicle -4.1297974344082747e-16 -4.660135024461038e-15
lhumerus -31.171073194132486 -0.7488949327627488 83.51595410387259
lradius 32.43137545734522
lwrist 5.05760586840985
lhand -26.882106186262348 22.65343747181458
lfingers nan
lthumb -0.6555267412158794 51.985184497347774
rclavicle 4.324688026316944e-16 -1.8782686349455247e-15
rhumerus -37.150340380739486 -30.00523541105929 -71.70709954875569
rradius 18.653503105413947
rwrist 14.686226671793353
rhand -17.25798708738788 1.0
rfingers nan
rthumb 9.020439815173996 -6.65939471289739
39
root 4.825441561458938 18.068795938440477 12.591923213792782 -3.33458328485269 -0.18611488059608883 -4.611942778279753
lfemur -5.877070614493654 -0.07349490435452122 -14.725342587672131
ltibia 65.56162014709064
lfoot 12.942460754521246 -16.286588526722802
ltoes 1.720136208244572
rfemur -13.326390596545943 5.846916847723831 30.100770730747364
rtibia 30.044519430830825
rfoot -7.192278313290328 -4.865859931396492
rtoes 15.359629682065783
lowerback 1.0 -0.7118651050810327 1.3646355124705776
upperback 0.3903899373685752 -1.3601633714042682 2.6267643869200965
thorax -4.669939124700095 -0.7427533349001068 2.812383803756873
lowerneck -16.468601655166857 -2.3506752611638784 -1.6074996848044278
upperneck 18.832531735996852 -3.632151350000529 0.5483184239876576
head 9.397950696163495 -1.8327737902614196 -0.06375813516350191
lclavicle -1.8242042518172515e-15 -4.9737801627984865e-15
lhumerus -32.01180961887395 -0.28742119770096775 83.78525842704872
lradius 29.81357189708114
lwrist 3.8839413131522633
lhand -27.053373542482547 22.06381548454302
lfingers nan
lthumb -0.4165582527996986 52.48215722892173
rclavicle 2.2520983966228675e-15 -2.5588653551697106e-15
rhumerus -34.5992631930728 -27.44691667836416 -74.35936574390254
rradius 18.387725607790514
rwrist 13.077318312054299
rhand -17.338067489539267 1.0
rfingers nan
rthumb 9.00843446538206 -6.6756776276703595
40
root 4.76363316462289 18.112869810933063 12.542549874299946 -3.4497339537782814 -0.6041167512643197 -6.0040930500602325
lfemur -11.049551021781815 1.9806954847059068 -14.434507861720727
ltibia 69.0986245321007
lfoot 4.658498136335591 -13.463672385806468
ltoes -4.274121948062121
rfemur -10.631719865614704 5.850673665743235 30.606711822413786
rtibia 30.006823074386283
rfoot -8.167452041043365 -4.610043872358287
rtoes 13.791652443853398
lowerback 1.0 -0.2683054950581135 1.5291574909021928
upperback 0.5253557231775166 -0.7853394231997707 2.3861934718009272
thorax -4.6898882267052775 -0.4496303662029023 2.037402714546137
lowerneck -16.180441209768315 -2.3988827419741585 -1.6828130092064357
upperneck 18.538736455732256 -3.8306313261740588 0.6066102314947847
head 9.326659221398012 -1.8973147373254373 -0.023136600008774197
lclavicle 9.608886810185843e-16 -2.5249965904374763e-15
lhumerus -32.63857443048696 -0.09673635696645477 84.03553695308695
lradius 27.649766804662306
lwrist 3.5515523416074863
lhand -27.21997397125519 21.715861277851502
lfingers nan
lthumb -0.40441935110975863 52.71873644409302
rclavicle 4.4221041575783026e-15 -1.1622988941992014e-17
rhumerus -33.285450557219455 -24.61897704895914 -75.97303202596494
rradius 18.788118640345633
rwrist 11.712581251215063
rhand -17.099855015054885 1.0
rfingers nan
rthumb 8.915755867239477 -7.485902423230238
41
root 4.740358772000571 18.09358096308643 12.696255594655634 -3.57563987783896 -1.3056644857551882 -6.2485738024636905
lfemur -16.552614551809427 3.8598202491027656 -13.830174651717208
ltibia 70.80921948556718
lfoot 0.761804220818898 -9.021839532234848
ltoes -3.3004792717140177
rfemur -8.346713985457399 6.078530127539359 31.618241601526655
rtibia 29.791918848606624
rfoot -9.082580568492265 -4.931159698333168
rtoes 11.504653784165953
lowerback 1.0 0.2631178971221712 2.1708439521688656
upperback 0.6744516670577555 0.3354642808786953 2.2129328664036394
thorax -4.657668595623196 0.0014008239455264304 1.426403621077684
lowerneck -16.26957503559961 -2.411881759569158 -1.6579333939656236
upperneck 19.145942740159924 -4.098810779043866 0.5531298163758873
head 9.15926159703264 -1.9817111031136159 -0.01938543650475763
lclavicle 1.9189386777447404e-15 -3.916524826233012e-15
lhumerus -32.87053869972087 -0.025275511238487036 84.16132752456087
lradius 25.856040464051368
lwrist 4.832955687437442
lhand -27.342540065396683 21.718646972730518
lfingers nan
lthumb -0.8899092782461221 51.271820042738995
rclavicle -1.8989357570143216e-15 -4.223264647528454e-15
rhumerus -31.502712365224664 -20.742969035445295 -78.08229507835225
rradius 19.468537177244745
rwrist 10.544170063757637
rhand -17.603549490821983 1.0
rfingers nan
rthumb 8.731657838496872 -7.092083124349776
42
root 4.739465270187802 18.063662818774205 13.956935091472179 -3.3444819504608088 -2.009056683678132 -6.367552772825588
lfemur -21.06588555816421 4.975142539174797 -13.605314856360213
ltibia 69.31533631267895
lfoot -1.0545788443811306 -4.8225127469275595
ltoes -3.766462639209252
rfemur -6.022160911560772 6.079125891647182 32.6629195648141
rtibia 30.764074931370743
rfoot -10.596692666431666 -4.830961009775426
rtoes 9.00568429560372
lowerback 1.0 0.6686928989627201 2.8820718156497795
upperback 0.6676171845193412 1.1334872715333728 2.0263803963079248
thorax -4.893341049301944 0.3409686942038419 0.49485470859181613
lowerneck -16.377425686148868 -2.481468907376219 -1.5915722857363395
upperneck 19.324628419970452 -4.066225684893758 0.6692117205775523
head 9.105439113435576 -1.9591994691065686 0.12096671921166033
lclavicle -4.927383467246925e-16 -5.348980818255926e-15
lhumerus -33.2958740085228 0.9228093340034588 83.96203071958932
lradius 24.33775265155021
lwrist 5.718576683912911
lhand -26.890619367249883 22.435037271780203
lfingers nan
lthumb -0.5890708699322373 51.85754644892783
rclavicle 2.285592466779177e-15 -2.8806979619416443e-15
rhumerus -29.959072725585813 -17.44788320319039 -79.83217753543863
rradius 20.931985995464366
rwrist 9.024819023705394
rhand -17.75041398768196 1.0
rfingers nan
rthumb 8.833552070874399 -6.45714409849777
43
root 4.749343940851352 18.01951033016606 15.168597580019478 -2.8064980103843804 -2.822748967927815 -6.952169642591388
lfemur -24.488559439200507 5.192501468484007 -13.284568797332312
ltibia 65.43413519738787
lfoot -2.8905402680603944 -1.608505956738429
ltoes -4.193874616574375
rfemur -3.953366831433515 5.791284257450758 33.790404716520456
rtibia 30.59765682550493
rfoot -12.397385905545654 -4.89835500129427
rtoes 9.056096892058273
lowerback 1.0 1.0367265025140746 3.848990059081778
upperback 0.5743092425084099 1.7313264241558666 2.052453460869729
thorax -5.167203317732451 0.6399425239102365 -0.22899534756928763
lowerneck -16.400980088970194 -2.5423528573158083 -1.535953478001462
upperneck 19.41561135838824 -4.05307900244791 0.5428867276159883
head 8.702478892039965 -1.9327705908818644 0.12064304870246614
lclavicle 1.5585314452058766e-15 -5.223701947614564e-15
lhumerus -33.580664983920215 1.3068645171435698 84.04900798136858
lradius 23.1507410023252
lwrist 6.175581941836612
lhand -26.478478655132825 23.33391073533676
lfingers nan
lthumb 0.050842556775820946 53.31655295546983
rclavicle 2.756865666828952e-15 -1.9493524128355e-15
rhumerus -27.912554257460133 -14.501253478795665 -80.92061492147685
rradius 22.952181103005316
rwrist 6.441782012425912
rhand -17.615038272186656 1.0
rfingers nan
rthumb 8.97237603441953 -5.8566417915198485
